<svg width="1200" height="260" viewBox="0 0 1200 260" xmlns="http://www.w3.org/2000/svg">
  <defs>
    <linearGradient id="bg" x1="0" y1="0" x2="1" y2="1">
      <stop offset="0%" stop-color="#1e1b4b"/>
      <stop offset="50%" stop-color="#4c1d95"/>
      <stop offset="100%" stop-color="#831843"/>
    </linearGradient>
    <linearGradient id="glow" x1="0" y1="0" x2="1" y2="0">
      <stop offset="0%" stop-color="#f472b6" stop-opacity="0"/>
      <stop offset="50%" stop-color="#f472b6" stop-opacity="0.5"/>
      <stop offset="100%" stop-color="#f472b6" stop-opacity="0"/>
    </linearGradient>
  </defs>
  <rect width="1200" height="260" fill="url(#bg)"/>
  <g opacity="0.15">
    <circle cx="120" cy="60" r="3" fill="#ffffff"/>
    <circle cx="260" cy="140" r="2" fill="#ffffff"/>
    <circle cx="400" cy="40" r="2.5" fill="#ffffff"/>
    <circle cx="560" cy="180" r="2" fill="#ffffff"/>
    <circle cx="720" cy="70" r="3" fill="#ffffff"/>
    <circle cx="880" cy="150" r="2" fill="#ffffff"/>
    <circle cx="1020" cy="50" r="2.5" fill="#ffffff"/>
    <circle cx="1120" cy="190" r="2" fill="#ffffff"/>
  </g>
  <rect x="0" y="150" width="1200" height="2" fill="url(#glow)"/>
  <text x="600" y="110" font-family="Georgia, serif" font-size="52" font-weight="bold" fill="#ffffff" text-anchor="middle" letter-spacing="2">Bias</text>
  <text x="600" y="150" font-family="Arial, sans-serif" font-size="20" fill="#f9a8d4" text-anchor="middle" letter-spacing="1">Probing Caste Bias in Large Language Models</text>
  <text x="600" y="185" font-family="Arial, sans-serif" font-size="15" fill="#c4b5fd" text-anchor="middle" letter-spacing="0.5">Sparse Autoencoders · Circuit Tracing · Neuronpedia</text>
  <g font-family="Arial, sans-serif" font-size="13" fill="#e9d5ff" text-anchor="middle" opacity="0.9">
    <text x="300" y="230">Gemma 2B</text>
    <text x="600" y="230">Gemma 9B</text>
    <text x="900" y="230">Llama 3.1 8B</text>
  </g>
  <circle cx="220" cy="226" r="3" fill="#f472b6"/>
  <circle cx="520" cy="226" r="3" fill="#f472b6"/>
  <circle cx="810" cy="226" r="3" fill="#f472b6"/>
</svg>
